<svg width="360" height="302" viewBox="0 0 360 302" fill="none" xmlns="http://www.w3.org/2000/svg">
<rect width="360" height="302" fill="white"/>
<path fill-rule="evenodd" clip-rule="evenodd" d="M183 20C183.342 20 183.496 21.1018 184.246 21.8518C184.996 22.6018 186 22.6592 186 23C186 23.3408 184.989 23.4936 184.239 24.2436C183.489 24.9936 183.434 26 183 26C182.566 26 182.488 24.9428 181.738 24.1928C180.988 23.4428 180 23.3736 180 23C180 22.6264 180.905 22.615 181.689 21.8307C182.473 21.0463 182.658 20 183 20Z" fill="#FFDB63"/>
<mask id="mask0" mask-type="alpha" maskUnits="userSpaceOnUse" x="180" y="20" width="6" height="6">
<path fill-rule="evenodd" clip-rule="evenodd" d="M183 20C183.342 20 183.496 21.1018 184.246 21.8518C184.996 22.6018 186 22.6592 186 23C186 23.3408 184.989 23.4936 184.239 24.2436C183.489 24.9936 183.434 26 183 26C182.566 26 182.488 24.9428 181.738 24.1928C180.988 23.4428 180 23.3736 180 23C180 22.6264 180.905 22.615 181.689 21.8307C182.473 21.0463 182.658 20 183 20Z" fill="white"/>
</mask>
<g mask="url(#mask0)">
</g>
<path fill-rule="evenodd" clip-rule="evenodd" d="M114 0C114.571 0 114.827 1.83642 116.077 3.08642C117.327 4.33642 119 4.43202 119 5C119 5.56798 117.316 5.8226 116.066 7.0726C114.816 8.3226 114.723 10 114 10C113.277 10 113.146 8.23797 111.896 6.98797C110.646 5.73797 109 5.62266 109 5C109 4.37734 110.508 4.35838 111.815 3.0511C113.122 1.74383 113.429 0 114 0Z" fill="#FFDB63"/>
<mask id="mask1" mask-type="alpha" maskUnits="userSpaceOnUse" x="109" y="0" width="10" height="10">
<path fill-rule="evenodd" clip-rule="evenodd" d="M114 0C114.571 0 114.827 1.83642 116.077 3.08642C117.327 4.33642 119 4.43202 119 5C119 5.56798 117.316 5.8226 116.066 7.0726C114.816 8.3226 114.723 10 114 10C113.277 10 113.146 8.23797 111.896 6.98797C110.646 5.73797 109 5.62266 109 5C109 4.37734 110.508 4.35838 111.815 3.0511C113.122 1.74383 113.429 0 114 0Z" fill="white"/>
</mask>
<g mask="url(#mask1)">
</g>
<path fill-rule="evenodd" clip-rule="evenodd" d="M105 62C105.342 62 105.496 63.1018 106.246 63.8518C106.996 64.6018 108 64.6592 108 65C108 65.3408 106.989 65.4936 106.239 66.2436C105.489 66.9936 105.434 68 105 68C104.566 68 104.488 66.9428 103.738 66.1928C102.988 65.4428 102 65.3736 102 65C102 64.6264 102.905 64.615 103.689 63.8307C104.473 63.0463 104.658 62 105 62Z" fill="#FFDB63"/>
<mask id="mask2" mask-type="alpha" maskUnits="userSpaceOnUse" x="102" y="62" width="6" height="6">
<path fill-rule="evenodd" clip-rule="evenodd" d="M105 62C105.342 62 105.496 63.1018 106.246 63.8518C106.996 64.6018 108 64.6592 108 65C108 65.3408 106.989 65.4936 106.239 66.2436C105.489 66.9936 105.434 68 105 68C104.566 68 104.488 66.9428 103.738 66.1928C102.988 65.4428 102 65.3736 102 65C102 64.6264 102.905 64.615 103.689 63.8307C104.473 63.0463 104.658 62 105 62Z" fill="white"/>
</mask>
<g mask="url(#mask2)">
</g>
<path fill-rule="evenodd" clip-rule="evenodd" d="M141 27C141.342 27 141.496 28.1018 142.246 28.8518C142.996 29.6018 144 29.6592 144 30C144 30.3408 142.989 30.4936 142.239 31.2436C141.489 31.9936 141.434 33 141 33C140.566 33 140.488 31.9428 139.738 31.1928C138.988 30.4428 138 30.3736 138 30C138 29.6264 138.905 29.615 139.689 28.8307C140.473 28.0463 140.658 27 141 27Z" fill="#FFDB63"/>
<mask id="mask3" mask-type="alpha" maskUnits="userSpaceOnUse" x="138" y="27" width="6" height="6">
<path fill-rule="evenodd" clip-rule="evenodd" d="M141 27C141.342 27 141.496 28.1018 142.246 28.8518C142.996 29.6018 144 29.6592 144 30C144 30.3408 142.989 30.4936 142.239 31.2436C141.489 31.9936 141.434 33 141 33C140.566 33 140.488 31.9428 139.738 31.1928C138.988 30.4428 138 30.3736 138 30C138 29.6264 138.905 29.615 139.689 28.8307C140.473 28.0463 140.658 27 141 27Z" fill="white"/>
</mask>
<g mask="url(#mask3)">
</g>
<path fill-rule="evenodd" clip-rule="evenodd" d="M220 54C220.342 54 220.496 55.1018 221.246 55.8518C221.996 56.6018 223 56.6592 223 57C223 57.3408 221.989 57.4936 221.239 58.2436C220.489 58.9936 220.434 60 220 60C219.566 60 219.488 58.9428 218.738 58.1928C217.988 57.4428 217 57.3736 217 57C217 56.6264 217.905 56.615 218.689 55.8307C219.473 55.0463 219.658 54 220 54Z" fill="#FFDB63"/>
<mask id="mask4" mask-type="alpha" maskUnits="userSpaceOnUse" x="217" y="54" width="6" height="6">
<path fill-rule="evenodd" clip-rule="evenodd" d="M220 54C220.342 54 220.496 55.1018 221.246 55.8518C221.996 56.6018 223 56.6592 223 57C223 57.3408 221.989 57.4936 221.239 58.2436C220.489 58.9936 220.434 60 220 60C219.566 60 219.488 58.9428 218.738 58.1928C217.988 57.4428 217 57.3736 217 57C217 56.6264 217.905 56.615 218.689 55.8307C219.473 55.0463 219.658 54 220 54Z" fill="white"/>
</mask>
<g mask="url(#mask4)">
</g>
<path fill-rule="evenodd" clip-rule="evenodd" d="M211 33C212.105 33 213 32.1046 213 31C213 29.8954 212.105 29 211 29C209.895 29 209 29.8954 209 31C209 32.1046 209.895 33 211 33Z" fill="#E6EBEE"/>
<mask id="mask5" mask-type="alpha" maskUnits="userSpaceOnUse" x="209" y="29" width="4" height="4">
<path fill-rule="evenodd" clip-rule="evenodd" d="M211 33C212.105 33 213 32.1046 213 31C213 29.8954 212.105 29 211 29C209.895 29 209 29.8954 209 31C209 32.1046 209.895 33 211 33Z" fill="white"/>
</mask>
<g mask="url(#mask5)">
</g>
<path fill-rule="evenodd" clip-rule="evenodd" d="M250.5 128C251.328 128 252 127.328 252 126.5C252 125.672 251.328 125 250.5 125C249.672 125 249 125.672 249 126.5C249 127.328 249.672 128 250.5 128Z" fill="#E6EBEE"/>
<mask id="mask6" mask-type="alpha" maskUnits="userSpaceOnUse" x="249" y="125" width="3" height="3">
<path fill-rule="evenodd" clip-rule="evenodd" d="M250.5 128C251.328 128 252 127.328 252 126.5C252 125.672 251.328 125 250.5 125C249.672 125 249 125.672 249 126.5C249 127.328 249.672 128 250.5 128Z" fill="white"/>
</mask>
<g mask="url(#mask6)">
</g>
<path fill-rule="evenodd" clip-rule="evenodd" d="M223.5 151C224.328 151 225 150.328 225 149.5C225 148.672 224.328 148 223.5 148C222.672 148 222 148.672 222 149.5C222 150.328 222.672 151 223.5 151Z" fill="#E6EBEE"/>
<mask id="mask7" mask-type="alpha" maskUnits="userSpaceOnUse" x="222" y="148" width="3" height="3">
<path fill-rule="evenodd" clip-rule="evenodd" d="M223.5 151C224.328 151 225 150.328 225 149.5C225 148.672 224.328 148 223.5 148C222.672 148 222 148.672 222 149.5C222 150.328 222.672 151 223.5 151Z" fill="white"/>
</mask>
<g mask="url(#mask7)">
</g>
<path fill-rule="evenodd" clip-rule="evenodd" d="M103 29C103.552 29 104 28.5523 104 28C104 27.4477 103.552 27 103 27C102.448 27 102 27.4477 102 28C102 28.5523 102.448 29 103 29Z" fill="#E6EBEE"/>
<mask id="mask8" mask-type="alpha" maskUnits="userSpaceOnUse" x="102" y="27" width="2" height="2">
<path fill-rule="evenodd" clip-rule="evenodd" d="M103 29C103.552 29 104 28.5523 104 28C104 27.4477 103.552 27 103 27C102.448 27 102 27.4477 102 28C102 28.5523 102.448 29 103 29Z" fill="white"/>
</mask>
<g mask="url(#mask8)">
</g>
<path fill-rule="evenodd" clip-rule="evenodd" d="M99 131C99.5523 131 100 130.552 100 130C100 129.448 99.5523 129 99 129C98.4477 129 98 129.448 98 130C98 130.552 98.4477 131 99 131Z" fill="#E6EBEE"/>
<mask id="mask9" mask-type="alpha" maskUnits="userSpaceOnUse" x="98" y="129" width="2" height="2">
<path fill-rule="evenodd" clip-rule="evenodd" d="M99 131C99.5523 131 100 130.552 100 130C100 129.448 99.5523 129 99 129C98.4477 129 98 129.448 98 130C98 130.552 98.4477 131 99 131Z" fill="white"/>
</mask>
<g mask="url(#mask9)">
</g>
<path fill-rule="evenodd" clip-rule="evenodd" d="M251 33C251.342 33 251.496 34.1018 252.246 34.8518C252.996 35.6018 254 35.6592 254 36C254 36.3408 252.989 36.4936 252.239 37.2436C251.489 37.9936 251.434 39 251 39C250.566 39 250.488 37.9428 249.738 37.1928C248.988 36.4428 248 36.3736 248 36C248 35.6264 248.905 35.615 249.689 34.8307C250.473 34.0463 250.658 33 251 33Z" fill="#FFDB63"/>
<mask id="mask10" mask-type="alpha" maskUnits="userSpaceOnUse" x="248" y="33" width="6" height="6">
<path fill-rule="evenodd" clip-rule="evenodd" d="M251 33C251.342 33 251.496 34.1018 252.246 34.8518C252.996 35.6018 254 35.6592 254 36C254 36.3408 252.989 36.4936 252.239 37.2436C251.489 37.9936 251.434 39 251 39C250.566 39 250.488 37.9428 249.738 37.1928C248.988 36.4428 248 36.3736 248 36C248 35.6264 248.905 35.615 249.689 34.8307C250.473 34.0463 250.658 33 251 33Z" fill="white"/>
</mask>
<g mask="url(#mask10)">
</g>
<path d="M102 101C94.5517 84.9237 86 84 78 87.5C87 88.6012 94 96 97 103C97.5 102 100.5 100.5 102 101Z" fill="black" fill-opacity="0.04"/>
<path fill-rule="evenodd" clip-rule="evenodd" d="M67.2458 96.0027C67.8404 94.5167 68.6329 93.1314 69.5906 91.8791C72.788 87.6979 77.8282 85 83.5 85C91.9672 85 99.0285 91.0125 100.65 99.0012C105.319 99.0734 109.17 102.514 109.882 107H131C131.552 107 132 107.448 132 108C132 108.552 131.552 109 131 109H108.985C108.456 109 108.018 108.587 107.987 108.058C107.759 104.122 104.494 101 100.5 101C100.29 101 100.101 101.007 99.8953 101.024C99.3717 101.066 98.9051 100.695 98.827 100.176L98.8232 100.15C97.7223 92.9075 91.6066 87.3113 84.1295 87.0125C83.9207 87.0042 83.7108 87 83.5 87C78.4295 87 73.9262 89.4351 71.098 93.2008C69.1526 95.7912 68 99.011 68 102.5C68 103.052 67.5523 103.5 67 103.5C66.4477 103.5 66 103.052 66 102.5C66 100.947 66.2022 99.4419 66.5817 98.0086C61.2529 98.2278 57 102.617 57 108C57 108.552 56.5523 109 56 109H37C36.4477 109 36 108.552 36 108C36 107.448 36.4477 107 37 107H55.0411C55.5492 100.84 60.7093 96 67 96C67.0811 96.0001 67.1633 96.001 67.2458 96.0027ZM135 108C135 107.448 135.448 107 136 107H145C145.552 107 146 107.448 146 108C146 108.552 145.552 109 145 109H136C135.448 109 135 108.552 135 108Z" fill="#CAD3D9"/>
<mask id="mask11" mask-type="alpha" maskUnits="userSpaceOnUse" x="36" y="85" width="110" height="24">
<path fill-rule="evenodd" clip-rule="evenodd" d="M67.2458 96.0027C67.8404 94.5167 68.6329 93.1314 69.5906 91.8791C72.788 87.6979 77.8282 85 83.5 85C91.9672 85 99.0285 91.0125 100.65 99.0012C105.319 99.0734 109.17 102.514 109.882 107H131C131.552 107 132 107.448 132 108C132 108.552 131.552 109 131 109H108.985C108.456 109 108.018 108.587 107.987 108.058C107.759 104.122 104.494 101 100.5 101C100.29 101 100.101 101.007 99.8953 101.024C99.3717 101.066 98.9051 100.695 98.827 100.176L98.8232 100.15C97.7223 92.9075 91.6066 87.3113 84.1295 87.0125C83.9207 87.0042 83.7108 87 83.5 87C78.4295 87 73.9262 89.4351 71.098 93.2008C69.1526 95.7912 68 99.011 68 102.5C68 103.052 67.5523 103.5 67 103.5C66.4477 103.5 66 103.052 66 102.5C66 100.947 66.2022 99.4419 66.5817 98.0086C61.2529 98.2278 57 102.617 57 108C57 108.552 56.5523 109 56 109H37C36.4477 109 36 108.552 36 108C36 107.448 36.4477 107 37 107H55.0411C55.5492 100.84 60.7093 96 67 96C67.0811 96.0001 67.1633 96.001 67.2458 96.0027ZM135 108C135 107.448 135.448 107 136 107H145C145.552 107 146 107.448 146 108C146 108.552 145.552 109 145 109H136C135.448 109 135 108.552 135 108Z" fill="white"/>
</mask>
<g mask="url(#mask11)">
</g>
<path d="M279 74C276 64.5 265 61.1673 257 64.6673C266 65.7685 270 70 273 77C274.5 75.5 276.5 74.5 279 74Z" fill="black" fill-opacity="0.04"/>
<path fill-rule="evenodd" clip-rule="evenodd" d="M263.5 62C254.433 62 246.891 68.5214 245.306 77.1297C240.689 77.8434 237.022 81.4262 236.181 86H216C215.448 86 215 86.4477 215 87C215 87.5523 215.448 88 216 88H237.049C237.563 88 237.994 87.6103 238.045 87.0988C238.472 82.7968 241.931 79.3846 246.254 79.0304C246.72 78.9922 247.097 78.6363 247.163 78.1734C248.293 70.1627 255.177 64 263.5 64C269.644 64 275.006 67.3584 277.846 72.3432C276.693 72.5909 275.585 72.9655 274.571 73.444C274.072 73.681 273.86 74.2775 274.097 74.7764C274.334 75.2752 274.93 75.4875 275.429 75.2505C276.673 74.6553 277.967 74.2639 279.356 74.095C279.396 74.0952 279.436 74.093 279.477 74.0882C279.986 74.0284 280.475 73.9996 281 74C284.687 74 288.015 75.5347 290.381 78C292.622 80.3358 294 83.507 294 87C294 87.4833 294.343 87.8864 294.799 87.9797C294.864 87.993 294.931 88 295 88H315C315.552 88 316 87.5523 316 87C316 86.4477 315.552 86 315 86H295.967C295.742 82.5796 294.37 79.4724 292.233 77.059C289.485 73.956 285.471 72 281 72C280.655 72.0003 280.302 72.0128 279.955 72.0366C276.884 66.0779 270.669 62 263.5 62ZM318 87C318 86.4477 318.448 86 319 86H323C323.552 86 324 86.4477 324 87C324 87.5523 323.552 88 323 88H319C318.448 88 318 87.5523 318 87ZM203 87C203 86.4477 203.448 86 204 86H212C212.552 86 213 86.4477 213 87C213 87.5523 212.552 88 212 88H204C203.448 88 203 87.5523 203 87Z" fill="#CAD3D9"/>
<mask id="mask12" mask-type="alpha" maskUnits="userSpaceOnUse" x="203" y="62" width="121" height="26">
<path fill-rule="evenodd" clip-rule="evenodd" d="M263.5 62C254.433 62 246.891 68.5214 245.306 77.1297C240.689 77.8434 237.022 81.4262 236.181 86H216C215.448 86 215 86.4477 215 87C215 87.5523 215.448 88 216 88H237.049C237.563 88 237.994 87.6103 238.045 87.0988C238.472 82.7968 241.931 79.3846 246.254 79.0304C246.72 78.9922 247.097 78.6363 247.163 78.1734C248.293 70.1627 255.177 64 263.5 64C269.644 64 275.006 67.3584 277.846 72.3432C276.693 72.5909 275.585 72.9655 274.571 73.444C274.072 73.681 273.86 74.2775 274.097 74.7764C274.334 75.2752 274.93 75.4875 275.429 75.2505C276.673 74.6553 277.967 74.2639 279.356 74.095C279.396 74.0952 279.436 74.093 279.477 74.0882C279.986 74.0284 280.475 73.9996 281 74C284.687 74 288.015 75.5347 290.381 78C292.622 80.3358 294 83.507 294 87C294 87.4833 294.343 87.8864 294.799 87.9797C294.864 87.993 294.931 88 295 88H315C315.552 88 316 87.5523 316 87C316 86.4477 315.552 86 315 86H295.967C295.742 82.5796 294.37 79.4724 292.233 77.059C289.485 73.956 285.471 72 281 72C280.655 72.0003 280.302 72.0128 279.955 72.0366C276.884 66.0779 270.669 62 263.5 62ZM318 87C318 86.4477 318.448 86 319 86H323C323.552 86 324 86.4477 324 87C324 87.5523 323.552 88 323 88H319C318.448 88 318 87.5523 318 87ZM203 87C203 86.4477 203.448 86 204 86H212C212.552 86 213 86.4477 213 87C213 87.5523 212.552 88 212 88H204C203.448 88 203 87.5523 203 87Z" fill="white"/>
</mask>
<g mask="url(#mask12)">
</g>
<path d="M197 173C186.5 156.5 171.5 153 158.5 158C176.5 159.5 188.448 172.971 190 179C193.5 175 196 173 197 173Z" fill="black" fill-opacity="0.04"/>
<path fill-rule="evenodd" clip-rule="evenodd" d="M144.108 181.09C145.325 167.584 156.677 157 170.5 157C181.138 157 190.313 163.268 194.532 172.316C193.061 173.07 191.767 174.118 190.728 175.382C190.377 175.809 190.438 176.439 190.865 176.79C191.291 177.14 191.922 177.079 192.272 176.653C194.108 174.421 196.888 173 200 173C204.901 173 208.98 176.527 209.835 181.181C209.92 181.642 210.313 181.981 210.779 181.999L210.791 182C210.8 182 210.809 182 210.819 182H210.836H246C246.552 182 247 181.552 247 181C247 180.448 246.552 180 246 180H211.622C210.289 174.824 205.592 171 200 171C198.74 171 197.524 171.194 196.383 171.555C191.866 161.783 181.976 155 170.5 155C155.945 155 143.939 165.91 142.213 180H116C115.448 180 115 180.448 115 181C115 181.552 115.448 182 116 182H143.112C143.63 182 144.062 181.605 144.108 181.09ZM105 181C105 180.448 105.448 180 106 180H112C112.552 180 113 180.448 113 181C113 181.552 112.552 182 112 182H106C105.448 182 105 181.552 105 181Z" fill="#CAD3D9"/>
<mask id="mask13" mask-type="alpha" maskUnits="userSpaceOnUse" x="105" y="155" width="142" height="27">
<path fill-rule="evenodd" clip-rule="evenodd" d="M144.108 181.09C145.325 167.584 156.677 157 170.5 157C181.138 157 190.313 163.268 194.532 172.316C193.061 173.07 191.767 174.118 190.728 175.382C190.377 175.809 190.438 176.439 190.865 176.79C191.291 177.14 191.922 177.079 192.272 176.653C194.108 174.421 196.888 173 200 173C204.901 173 208.98 176.527 209.835 181.181C209.92 181.642 210.313 181.981 210.779 181.999L210.791 182C210.8 182 210.809 182 210.819 182H210.836H246C246.552 182 247 181.552 247 181C247 180.448 246.552 180 246 180H211.622C210.289 174.824 205.592 171 200 171C198.74 171 197.524 171.194 196.383 171.555C191.866 161.783 181.976 155 170.5 155C155.945 155 143.939 165.91 142.213 180H116C115.448 180 115 180.448 115 181C115 181.552 115.448 182 116 182H143.112C143.63 182 144.062 181.605 144.108 181.09ZM105 181C105 180.448 105.448 180 106 180H112C112.552 180 113 180.448 113 181C113 181.552 112.552 182 112 182H106C105.448 182 105 181.552 105 181Z" fill="white"/>
</mask>
<g mask="url(#mask13)">
</g>
<path fill-rule="evenodd" clip-rule="evenodd" d="M169.405 43.809C168.142 42.653 166.5 42 164.753 42C160.97 42 157.907 45.025 157.907 48.75C157.907 51.4106 159.487 53.788 161.906 54.8819C162.42 55.1145 162.64 55.7264 162.392 56.2332C161.775 57.4903 161.451 58.8503 161.451 60.25C161.451 65.3558 165.646 69.5 170.827 69.5C173.416 69.5 175.833 68.4561 177.594 66.6415C177.783 66.4475 178.041 66.338 178.312 66.338H190.923L169.405 43.809ZM145 79C136.163 79 129 86.1634 129 95V125H147H161H223V96C223 86.4891 215.439 79 206 79H203C202.981 79 202.959 79.0002 202.933 79.0006C202.895 79.0012 202.85 79.0021 202.801 79.0031C202.578 79.0076 202.258 79.0141 202 79H147V79.1238C146.345 79.0421 145.677 79 145 79ZM173 155.108V127H179V156.289C177.079 155.69 175.071 155.288 173 155.108Z" fill="white"/>
<path fill-rule="evenodd" clip-rule="evenodd" d="M217 125H223V96C223 86.4891 215.561 79 206 79H204C203.437 79 202.89 79.0165 202.357 79.0489C210.207 80.2142 217 87.2985 217 96V125ZM180 89C180 91.7614 177.761 94 175 94C172.239 94 170 91.7614 170 89C170 86.2386 172.239 84 175 84C177.761 84 180 86.2386 180 89Z" fill="#A6D2FF"/>
<path fill-rule="evenodd" clip-rule="evenodd" d="M156.27 51.2326C156.897 53.3238 158.299 55.1168 160.204 56.247C159.709 57.5197 159.451 58.8688 159.451 60.25C159.451 64.6591 162.015 68.4737 165.747 70.3187V77H145C135.059 77 127 85.0589 127 95V127H145H163H171V155.004C171.673 155.016 172.34 155.051 173 155.108V127H179V156.289C179.678 156.501 180.345 156.737 181 156.997V127H225V96C225 85.3802 216.539 77 206 77H171.747V71.4635C174.387 71.253 176.837 70.1416 178.724 68.338H193.261C194.141 68.338 194.592 67.2835 193.984 66.6472L170.803 42.3807C169.128 40.8439 167.006 40 164.753 40C160.712 40 157.301 42.6819 156.245 46.3477L154.948 46.889L152.615 47.8618C151.795 48.2038 151.795 49.3658 152.615 49.7078L154.949 50.6808L156.27 51.2326ZM167.747 77V71.0827C168.392 71.2618 169.061 71.386 169.747 71.4499V77H167.747ZM223 125V96C223 86.4891 215.439 79 206 79H203C202.952 79 202.883 79.0014 202.801 79.0031L202.801 79.0031C202.578 79.0076 202.258 79.0141 202 79H153.254C159.043 81.9925 163 88.0341 163 95V125H171H181H223ZM129 95C129 86.1634 136.163 79 145 79C153.837 79 161 86.1634 161 95V125H129V95ZM189 90H175C174.436 90 174 89.5523 174 89C174 88.4477 174.436 88 175 88H189H208V119L199 111L189 119V90ZM206 90H191V115L199 108.5L206 115V90ZM169.405 43.809C168.142 42.653 166.5 42 164.753 42C160.97 42 157.907 45.0251 157.907 48.75C157.907 51.4106 159.487 53.788 161.906 54.8819C162.42 55.1145 162.64 55.7264 162.392 56.2332C161.775 57.4903 161.451 58.8503 161.451 60.25C161.451 65.3558 165.646 69.5 170.827 69.5C173.416 69.5 175.833 68.4561 177.594 66.6415C177.783 66.4475 178.041 66.338 178.312 66.338H190.923L169.405 43.809ZM166.6 55.5192C166.049 55.5499 165.627 56.0219 165.657 56.5733C165.716 57.6331 166.216 59.1231 167.529 60.5908C169.182 62.4381 171.756 63.7011 175.382 64.1506C175.93 64.2186 176.429 63.8293 176.497 63.2812C176.565 62.7331 176.176 62.2337 175.628 62.1658C172.465 61.7737 170.337 60.7295 169.02 59.2572C168.448 58.618 168.068 57.9387 167.842 57.2642C167.712 56.8756 167.662 56.5903 167.654 56.4621C167.624 55.9107 167.152 55.4885 166.6 55.5192ZM163.247 49.838C164.075 49.838 164.747 49.1664 164.747 48.338C164.747 47.5096 164.075 46.838 163.247 46.838C162.418 46.838 161.747 47.5096 161.747 48.338C161.747 49.1664 162.418 49.838 163.247 49.838Z" fill="#0B77E3"/>
<path d="M83.6094 221.523H80.125V231H77.7812V221.523H74.3438V219.625H83.6094V221.523Z" fill="#333333"/>
<path d="M87.0078 223.469C87.6068 222.75 88.3594 222.391 89.2656 222.391C91.099 222.391 92.0286 223.456 92.0547 225.586V231H89.7969V225.648C89.7969 225.164 89.6927 224.807 89.4844 224.578C89.276 224.344 88.9297 224.227 88.4453 224.227C87.7839 224.227 87.3047 224.482 87.0078 224.992V231H84.75V219H87.0078V223.469Z" fill="#333333"/>
<path d="M97.6484 231.156C96.4089 231.156 95.3984 230.776 94.6172 230.016C93.8411 229.255 93.4531 228.242 93.4531 226.977V226.758C93.4531 225.909 93.6172 225.151 93.9453 224.484C94.2734 223.812 94.737 223.297 95.3359 222.938C95.9401 222.573 96.6276 222.391 97.3984 222.391C98.5547 222.391 99.4635 222.755 100.125 223.484C100.792 224.214 101.125 225.247 101.125 226.586V227.508H95.7422C95.8151 228.06 96.0339 228.503 96.3984 228.836C96.7682 229.169 97.2344 229.336 97.7969 229.336C98.6667 229.336 99.3464 229.021 99.8359 228.391L100.945 229.633C100.607 230.112 100.148 230.487 99.5703 230.758C98.9922 231.023 98.3516 231.156 97.6484 231.156ZM97.3906 224.219C96.9427 224.219 96.5781 224.37 96.2969 224.672C96.0208 224.974 95.8438 225.406 95.7656 225.969H98.9062V225.789C98.8958 225.289 98.7604 224.904 98.5 224.633C98.2396 224.357 97.8698 224.219 97.3906 224.219Z" fill="#333333"/>
<path d="M107.164 224.664C106.857 224.622 106.586 224.602 106.352 224.602C105.497 224.602 104.938 224.891 104.672 225.469V231H102.414V222.547H104.547L104.609 223.555C105.062 222.779 105.69 222.391 106.492 222.391C106.742 222.391 106.977 222.424 107.195 222.492L107.164 224.664Z" fill="#333333"/>
<path d="M111.992 231.156C110.753 231.156 109.742 230.776 108.961 230.016C108.185 229.255 107.797 228.242 107.797 226.977V226.758C107.797 225.909 107.961 225.151 108.289 224.484C108.617 223.812 109.081 223.297 109.68 222.938C110.284 222.573 110.971 222.391 111.742 222.391C112.898 222.391 113.807 222.755 114.469 223.484C115.135 224.214 115.469 225.247 115.469 226.586V227.508H110.086C110.159 228.06 110.378 228.503 110.742 228.836C111.112 229.169 111.578 229.336 112.141 229.336C113.01 229.336 113.69 229.021 114.18 228.391L115.289 229.633C114.951 230.112 114.492 230.487 113.914 230.758C113.336 231.023 112.695 231.156 111.992 231.156ZM111.734 224.219C111.286 224.219 110.922 224.37 110.641 224.672C110.365 224.974 110.188 225.406 110.109 225.969H113.25V225.789C113.24 225.289 113.104 224.904 112.844 224.633C112.583 224.357 112.214 224.219 111.734 224.219Z" fill="#333333"/>
<path d="M125.641 231C125.536 230.797 125.461 230.544 125.414 230.242C124.867 230.852 124.156 231.156 123.281 231.156C122.453 231.156 121.766 230.917 121.219 230.438C120.677 229.958 120.406 229.354 120.406 228.625C120.406 227.729 120.737 227.042 121.398 226.562C122.065 226.083 123.026 225.841 124.281 225.836H125.32V225.352C125.32 224.961 125.219 224.648 125.016 224.414C124.818 224.18 124.503 224.062 124.07 224.062C123.69 224.062 123.391 224.154 123.172 224.336C122.958 224.518 122.852 224.768 122.852 225.086H120.594C120.594 224.596 120.745 224.143 121.047 223.727C121.349 223.31 121.776 222.984 122.328 222.75C122.88 222.51 123.5 222.391 124.188 222.391C125.229 222.391 126.055 222.654 126.664 223.18C127.279 223.701 127.586 224.435 127.586 225.383V229.047C127.591 229.849 127.703 230.456 127.922 230.867V231H125.641ZM123.773 229.43C124.107 229.43 124.414 229.357 124.695 229.211C124.977 229.06 125.185 228.859 125.32 228.609V227.156H124.477C123.346 227.156 122.745 227.547 122.672 228.328L122.664 228.461C122.664 228.742 122.763 228.974 122.961 229.156C123.159 229.339 123.43 229.43 123.773 229.43Z" fill="#333333"/>
<path d="M134.07 224.664C133.763 224.622 133.492 224.602 133.258 224.602C132.404 224.602 131.844 224.891 131.578 225.469V231H129.32V222.547H131.453L131.516 223.555C131.969 222.779 132.596 222.391 133.398 222.391C133.648 222.391 133.883 222.424 134.102 222.492L134.07 224.664Z" fill="#333333"/>
<path d="M138.898 231.156C137.659 231.156 136.648 230.776 135.867 230.016C135.091 229.255 134.703 228.242 134.703 226.977V226.758C134.703 225.909 134.867 225.151 135.195 224.484C135.523 223.812 135.987 223.297 136.586 222.938C137.19 222.573 137.878 222.391 138.648 222.391C139.805 222.391 140.714 222.755 141.375 223.484C142.042 224.214 142.375 225.247 142.375 226.586V227.508H136.992C137.065 228.06 137.284 228.503 137.648 228.836C138.018 229.169 138.484 229.336 139.047 229.336C139.917 229.336 140.596 229.021 141.086 228.391L142.195 229.633C141.857 230.112 141.398 230.487 140.82 230.758C140.242 231.023 139.602 231.156 138.898 231.156ZM138.641 224.219C138.193 224.219 137.828 224.37 137.547 224.672C137.271 224.974 137.094 225.406 137.016 225.969H140.156V225.789C140.146 225.289 140.01 224.904 139.75 224.633C139.49 224.357 139.12 224.219 138.641 224.219Z" fill="#333333"/>
<path d="M149.727 222.547L149.797 223.523C150.401 222.768 151.211 222.391 152.227 222.391C153.122 222.391 153.789 222.654 154.227 223.18C154.664 223.706 154.888 224.492 154.898 225.539V231H152.641V225.594C152.641 225.115 152.536 224.768 152.328 224.555C152.12 224.336 151.773 224.227 151.289 224.227C150.654 224.227 150.177 224.497 149.859 225.039V231H147.602V222.547H149.727Z" fill="#333333"/>
<path d="M156.266 226.695C156.266 225.857 156.427 225.109 156.75 224.453C157.073 223.797 157.536 223.289 158.141 222.93C158.75 222.57 159.456 222.391 160.258 222.391C161.398 222.391 162.328 222.74 163.047 223.438C163.771 224.135 164.174 225.083 164.258 226.281L164.273 226.859C164.273 228.156 163.911 229.198 163.188 229.984C162.464 230.766 161.492 231.156 160.273 231.156C159.055 231.156 158.081 230.766 157.352 229.984C156.628 229.203 156.266 228.141 156.266 226.797V226.695ZM158.523 226.859C158.523 227.661 158.674 228.276 158.977 228.703C159.279 229.125 159.711 229.336 160.273 229.336C160.82 229.336 161.247 229.128 161.555 228.711C161.862 228.289 162.016 227.617 162.016 226.695C162.016 225.909 161.862 225.299 161.555 224.867C161.247 224.435 160.815 224.219 160.258 224.219C159.706 224.219 159.279 224.435 158.977 224.867C158.674 225.294 158.523 225.958 158.523 226.859Z" fill="#333333"/>
<path d="M172.031 231H169.766V222.547H172.031V231ZM169.633 220.359C169.633 220.021 169.745 219.742 169.969 219.523C170.198 219.305 170.508 219.195 170.898 219.195C171.284 219.195 171.591 219.305 171.82 219.523C172.049 219.742 172.164 220.021 172.164 220.359C172.164 220.703 172.047 220.984 171.812 221.203C171.583 221.422 171.279 221.531 170.898 221.531C170.518 221.531 170.211 221.422 169.977 221.203C169.747 220.984 169.633 220.703 169.633 220.359Z" fill="#333333"/>
<path d="M176.602 220.469V222.547H178.047V224.203H176.602V228.422C176.602 228.734 176.661 228.958 176.781 229.094C176.901 229.229 177.13 229.297 177.469 229.297C177.719 229.297 177.94 229.279 178.133 229.242V230.953C177.69 231.089 177.234 231.156 176.766 231.156C175.182 231.156 174.375 230.357 174.344 228.758V224.203H173.109V222.547H174.344V220.469H176.602Z" fill="#333333"/>
<path d="M183.195 231.156C181.956 231.156 180.945 230.776 180.164 230.016C179.388 229.255 179 228.242 179 226.977V226.758C179 225.909 179.164 225.151 179.492 224.484C179.82 223.812 180.284 223.297 180.883 222.938C181.487 222.573 182.174 222.391 182.945 222.391C184.102 222.391 185.01 222.755 185.672 223.484C186.339 224.214 186.672 225.247 186.672 226.586V227.508H181.289C181.362 228.06 181.581 228.503 181.945 228.836C182.315 229.169 182.781 229.336 183.344 229.336C184.214 229.336 184.893 229.021 185.383 228.391L186.492 229.633C186.154 230.112 185.695 230.487 185.117 230.758C184.539 231.023 183.898 231.156 183.195 231.156ZM182.938 224.219C182.49 224.219 182.125 224.37 181.844 224.672C181.568 224.974 181.391 225.406 181.312 225.969H184.453V225.789C184.443 225.289 184.307 224.904 184.047 224.633C183.786 224.357 183.417 224.219 182.938 224.219Z" fill="#333333"/>
<path d="M190.078 222.547L190.148 223.492C190.747 222.758 191.557 222.391 192.578 222.391C193.667 222.391 194.414 222.82 194.82 223.68C195.414 222.82 196.26 222.391 197.359 222.391C198.276 222.391 198.958 222.659 199.406 223.195C199.854 223.727 200.078 224.529 200.078 225.602V231H197.812V225.609C197.812 225.13 197.719 224.781 197.531 224.562C197.344 224.339 197.013 224.227 196.539 224.227C195.862 224.227 195.393 224.549 195.133 225.195L195.141 231H192.883V225.617C192.883 225.128 192.786 224.773 192.594 224.555C192.401 224.336 192.073 224.227 191.609 224.227C190.969 224.227 190.505 224.492 190.219 225.023V231H187.961V222.547H190.078Z" fill="#333333"/>
<path d="M206.398 228.664C206.398 228.388 206.26 228.172 205.984 228.016C205.714 227.854 205.276 227.711 204.672 227.586C202.661 227.164 201.656 226.31 201.656 225.023C201.656 224.273 201.966 223.648 202.586 223.148C203.211 222.643 204.026 222.391 205.031 222.391C206.104 222.391 206.961 222.643 207.602 223.148C208.247 223.654 208.57 224.31 208.57 225.117H206.312C206.312 224.794 206.208 224.529 206 224.32C205.792 224.107 205.466 224 205.023 224C204.643 224 204.349 224.086 204.141 224.258C203.932 224.43 203.828 224.648 203.828 224.914C203.828 225.164 203.945 225.367 204.18 225.523C204.419 225.674 204.82 225.807 205.383 225.922C205.945 226.031 206.419 226.156 206.805 226.297C207.997 226.734 208.594 227.492 208.594 228.57C208.594 229.341 208.263 229.966 207.602 230.445C206.94 230.919 206.086 231.156 205.039 231.156C204.331 231.156 203.701 231.031 203.148 230.781C202.602 230.526 202.172 230.18 201.859 229.742C201.547 229.299 201.391 228.823 201.391 228.312H203.531C203.552 228.714 203.701 229.021 203.977 229.234C204.253 229.448 204.622 229.555 205.086 229.555C205.518 229.555 205.844 229.474 206.062 229.312C206.286 229.146 206.398 228.93 206.398 228.664Z" fill="#333333"/>
<path d="M216.742 220.469V222.547H218.188V224.203H216.742V228.422C216.742 228.734 216.802 228.958 216.922 229.094C217.042 229.229 217.271 229.297 217.609 229.297C217.859 229.297 218.081 229.279 218.273 229.242V230.953C217.831 231.089 217.375 231.156 216.906 231.156C215.323 231.156 214.516 230.357 214.484 228.758V224.203H213.25V222.547H214.484V220.469H216.742Z" fill="#333333"/>
<path d="M218.859 226.695C218.859 225.857 219.021 225.109 219.344 224.453C219.667 223.797 220.13 223.289 220.734 222.93C221.344 222.57 222.049 222.391 222.852 222.391C223.992 222.391 224.922 222.74 225.641 223.438C226.365 224.135 226.768 225.083 226.852 226.281L226.867 226.859C226.867 228.156 226.505 229.198 225.781 229.984C225.057 230.766 224.086 231.156 222.867 231.156C221.648 231.156 220.674 230.766 219.945 229.984C219.221 229.203 218.859 228.141 218.859 226.797V226.695ZM221.117 226.859C221.117 227.661 221.268 228.276 221.57 228.703C221.872 229.125 222.305 229.336 222.867 229.336C223.414 229.336 223.841 229.128 224.148 228.711C224.456 228.289 224.609 227.617 224.609 226.695C224.609 225.909 224.456 225.299 224.148 224.867C223.841 224.435 223.409 224.219 222.852 224.219C222.299 224.219 221.872 224.435 221.57 224.867C221.268 225.294 221.117 225.958 221.117 226.859Z" fill="#333333"/>
<path d="M231.891 226.711C231.891 225.393 232.185 224.344 232.773 223.562C233.367 222.781 234.177 222.391 235.203 222.391C236.026 222.391 236.706 222.698 237.242 223.312V219H239.508V231H237.469L237.359 230.102C236.797 230.805 236.073 231.156 235.188 231.156C234.193 231.156 233.393 230.766 232.789 229.984C232.19 229.198 231.891 228.107 231.891 226.711ZM234.148 226.875C234.148 227.667 234.286 228.273 234.562 228.695C234.839 229.117 235.24 229.328 235.766 229.328C236.464 229.328 236.956 229.034 237.242 228.445V225.109C236.961 224.521 236.474 224.227 235.781 224.227C234.693 224.227 234.148 225.109 234.148 226.875Z" fill="#333333"/>
<path d="M243.641 231H241.375V222.547H243.641V231ZM241.242 220.359C241.242 220.021 241.354 219.742 241.578 219.523C241.807 219.305 242.117 219.195 242.508 219.195C242.893 219.195 243.201 219.305 243.43 219.523C243.659 219.742 243.773 220.021 243.773 220.359C243.773 220.703 243.656 220.984 243.422 221.203C243.193 221.422 242.888 221.531 242.508 221.531C242.128 221.531 241.82 221.422 241.586 221.203C241.357 220.984 241.242 220.703 241.242 220.359Z" fill="#333333"/>
<path d="M250.086 228.664C250.086 228.388 249.948 228.172 249.672 228.016C249.401 227.854 248.964 227.711 248.359 227.586C246.349 227.164 245.344 226.31 245.344 225.023C245.344 224.273 245.654 223.648 246.273 223.148C246.898 222.643 247.714 222.391 248.719 222.391C249.792 222.391 250.648 222.643 251.289 223.148C251.935 223.654 252.258 224.31 252.258 225.117H250C250 224.794 249.896 224.529 249.688 224.32C249.479 224.107 249.154 224 248.711 224C248.331 224 248.036 224.086 247.828 224.258C247.62 224.43 247.516 224.648 247.516 224.914C247.516 225.164 247.633 225.367 247.867 225.523C248.107 225.674 248.508 225.807 249.07 225.922C249.633 226.031 250.107 226.156 250.492 226.297C251.685 226.734 252.281 227.492 252.281 228.57C252.281 229.341 251.951 229.966 251.289 230.445C250.628 230.919 249.773 231.156 248.727 231.156C248.018 231.156 247.388 231.031 246.836 230.781C246.289 230.526 245.859 230.18 245.547 229.742C245.234 229.299 245.078 228.823 245.078 228.312H247.219C247.24 228.714 247.388 229.021 247.664 229.234C247.94 229.448 248.31 229.555 248.773 229.555C249.206 229.555 249.531 229.474 249.75 229.312C249.974 229.146 250.086 228.93 250.086 228.664Z" fill="#333333"/>
<path d="M261.352 226.852C261.352 228.154 261.055 229.198 260.461 229.984C259.872 230.766 259.076 231.156 258.07 231.156C257.216 231.156 256.526 230.859 256 230.266V234.25H253.742V222.547H255.836L255.914 223.375C256.461 222.719 257.174 222.391 258.055 222.391C259.096 222.391 259.906 222.776 260.484 223.547C261.062 224.318 261.352 225.38 261.352 226.734V226.852ZM259.094 226.688C259.094 225.901 258.953 225.294 258.672 224.867C258.396 224.44 257.992 224.227 257.461 224.227C256.753 224.227 256.266 224.497 256 225.039V228.5C256.276 229.057 256.768 229.336 257.477 229.336C258.555 229.336 259.094 228.453 259.094 226.688Z" fill="#333333"/>
<path d="M265.141 231H262.875V219H265.141V231Z" fill="#333333"/>
<path d="M271.906 231C271.802 230.797 271.727 230.544 271.68 230.242C271.133 230.852 270.422 231.156 269.547 231.156C268.719 231.156 268.031 230.917 267.484 230.438C266.943 229.958 266.672 229.354 266.672 228.625C266.672 227.729 267.003 227.042 267.664 226.562C268.331 226.083 269.292 225.841 270.547 225.836H271.586V225.352C271.586 224.961 271.484 224.648 271.281 224.414C271.083 224.18 270.768 224.062 270.336 224.062C269.956 224.062 269.656 224.154 269.438 224.336C269.224 224.518 269.117 224.768 269.117 225.086H266.859C266.859 224.596 267.01 224.143 267.312 223.727C267.615 223.31 268.042 222.984 268.594 222.75C269.146 222.51 269.766 222.391 270.453 222.391C271.495 222.391 272.32 222.654 272.93 223.18C273.544 223.701 273.852 224.435 273.852 225.383V229.047C273.857 229.849 273.969 230.456 274.188 230.867V231H271.906ZM270.039 229.43C270.372 229.43 270.68 229.357 270.961 229.211C271.242 229.06 271.451 228.859 271.586 228.609V227.156H270.742C269.612 227.156 269.01 227.547 268.938 228.328L268.93 228.461C268.93 228.742 269.029 228.974 269.227 229.156C269.424 229.339 269.695 229.43 270.039 229.43Z" fill="#333333"/>
<path d="M278.617 227.805L280.18 222.547H282.602L279.203 232.312L279.016 232.758C278.51 233.862 277.677 234.414 276.516 234.414C276.188 234.414 275.854 234.365 275.516 234.266V232.555L275.859 232.562C276.286 232.562 276.604 232.497 276.812 232.367C277.026 232.237 277.193 232.021 277.312 231.719L277.578 231.023L274.617 222.547H277.047L278.617 227.805Z" fill="#333333"/>
<path d="M282.297 229.891C282.297 229.531 282.417 229.24 282.656 229.016C282.901 228.792 283.206 228.68 283.57 228.68C283.94 228.68 284.245 228.792 284.484 229.016C284.729 229.24 284.852 229.531 284.852 229.891C284.852 230.245 284.732 230.534 284.492 230.758C284.253 230.977 283.945 231.086 283.57 231.086C283.201 231.086 282.896 230.977 282.656 230.758C282.417 230.534 282.297 230.245 282.297 229.891Z" fill="#333333"/>
<rect x="107.5" y="262.5" width="145" height="39" rx="19.5" fill="#EEF1F3" stroke="#CAD3D9"/>
<mask id="mask14" mask-type="alpha" maskUnits="userSpaceOnUse" x="107" y="262" width="146" height="40">
<rect x="107.5" y="262.5" width="145" height="39" rx="19.5" fill="white" stroke="white"/>
</mask>
<g mask="url(#mask14)">
<path d="M137.617 283.76C137.517 284.822 137.125 285.651 136.441 286.248C135.758 286.84 134.849 287.137 133.714 287.137C132.921 287.137 132.221 286.95 131.615 286.576C131.014 286.198 130.549 285.662 130.221 284.97C129.893 284.277 129.722 283.473 129.708 282.557V281.627C129.708 280.688 129.874 279.861 130.207 279.146C130.54 278.43 131.016 277.879 131.636 277.491C132.26 277.104 132.98 276.91 133.796 276.91C134.894 276.91 135.778 277.209 136.448 277.806C137.118 278.403 137.508 279.246 137.617 280.335H135.895C135.812 279.619 135.603 279.104 135.266 278.79C134.933 278.471 134.443 278.312 133.796 278.312C133.044 278.312 132.465 278.587 132.06 279.139C131.659 279.686 131.453 280.49 131.444 281.552V282.434C131.444 283.509 131.636 284.329 132.019 284.895C132.406 285.46 132.971 285.742 133.714 285.742C134.393 285.742 134.903 285.59 135.245 285.284C135.587 284.979 135.803 284.471 135.895 283.76H137.617Z" fill="#333333"/>
<path d="M142.881 281.121C142.662 281.085 142.437 281.066 142.204 281.066C141.443 281.066 140.93 281.358 140.666 281.941V287H139.005V279.604H140.591L140.632 280.431C141.033 279.788 141.589 279.467 142.3 279.467C142.537 279.467 142.733 279.499 142.888 279.562L142.881 281.121Z" fill="#333333"/>
<path d="M147.051 287.137C145.998 287.137 145.144 286.806 144.487 286.146C143.836 285.48 143.51 284.596 143.51 283.493V283.288C143.51 282.55 143.651 281.891 143.934 281.312C144.221 280.729 144.622 280.276 145.137 279.952C145.652 279.629 146.226 279.467 146.859 279.467C147.867 279.467 148.644 279.788 149.19 280.431C149.742 281.073 150.018 281.982 150.018 283.158V283.828H145.185C145.235 284.439 145.438 284.922 145.793 285.277C146.153 285.633 146.604 285.811 147.146 285.811C147.908 285.811 148.527 285.503 149.006 284.888L149.901 285.742C149.605 286.184 149.209 286.528 148.712 286.774C148.22 287.016 147.666 287.137 147.051 287.137ZM146.853 280.8C146.397 280.8 146.028 280.959 145.745 281.278C145.467 281.597 145.289 282.042 145.212 282.611H148.377V282.488C148.34 281.932 148.192 281.513 147.933 281.23C147.673 280.943 147.313 280.8 146.853 280.8Z" fill="#333333"/>
<path d="M155.732 287C155.66 286.859 155.596 286.629 155.541 286.31C155.012 286.861 154.365 287.137 153.6 287.137C152.857 287.137 152.251 286.925 151.781 286.501C151.312 286.077 151.077 285.553 151.077 284.929C151.077 284.14 151.369 283.536 151.952 283.117C152.54 282.693 153.379 282.481 154.468 282.481H155.486V281.996C155.486 281.613 155.379 281.308 155.165 281.08C154.951 280.848 154.625 280.731 154.188 280.731C153.809 280.731 153.499 280.827 153.258 281.019C153.016 281.205 152.896 281.445 152.896 281.736H151.234C151.234 281.331 151.369 280.952 151.638 280.602C151.907 280.246 152.271 279.968 152.731 279.768C153.196 279.567 153.714 279.467 154.283 279.467C155.149 279.467 155.84 279.686 156.354 280.123C156.869 280.556 157.134 281.167 157.147 281.955V285.291C157.147 285.956 157.241 286.487 157.428 286.884V287H155.732ZM153.907 285.804C154.235 285.804 154.543 285.724 154.83 285.564C155.122 285.405 155.34 285.191 155.486 284.922V283.527H154.591C153.976 283.527 153.513 283.634 153.203 283.849C152.893 284.063 152.738 284.366 152.738 284.758C152.738 285.077 152.843 285.332 153.053 285.523C153.267 285.71 153.552 285.804 153.907 285.804Z" fill="#333333"/>
<path d="M160.969 277.806V279.604H162.274V280.834H160.969V284.963C160.969 285.245 161.023 285.451 161.133 285.578C161.247 285.701 161.447 285.763 161.734 285.763C161.926 285.763 162.119 285.74 162.315 285.694V286.979C161.937 287.084 161.573 287.137 161.222 287.137C159.946 287.137 159.308 286.433 159.308 285.024V280.834H158.091V279.604H159.308V277.806H160.969Z" fill="#333333"/>
<path d="M166.807 287.137C165.754 287.137 164.899 286.806 164.243 286.146C163.591 285.48 163.266 284.596 163.266 283.493V283.288C163.266 282.55 163.407 281.891 163.689 281.312C163.977 280.729 164.378 280.276 164.893 279.952C165.408 279.629 165.982 279.467 166.615 279.467C167.622 279.467 168.399 279.788 168.946 280.431C169.498 281.073 169.773 281.982 169.773 283.158V283.828H164.94C164.991 284.439 165.193 284.922 165.549 285.277C165.909 285.633 166.36 285.811 166.902 285.811C167.663 285.811 168.283 285.503 168.762 284.888L169.657 285.742C169.361 286.184 168.965 286.528 168.468 286.774C167.976 287.016 167.422 287.137 166.807 287.137ZM166.608 280.8C166.153 280.8 165.784 280.959 165.501 281.278C165.223 281.597 165.045 282.042 164.968 282.611H168.133V282.488C168.096 281.932 167.948 281.513 167.688 281.23C167.429 280.943 167.069 280.8 166.608 280.8Z" fill="#333333"/>
<path d="M176.958 277.047L179.829 284.676L182.693 277.047H184.929V287H183.206V283.719L183.377 279.33L180.438 287H179.2L176.268 279.337L176.438 283.719V287H174.716V277.047H176.958Z" fill="#333333"/>
<path d="M190.076 287.137C189.023 287.137 188.169 286.806 187.513 286.146C186.861 285.48 186.535 284.596 186.535 283.493V283.288C186.535 282.55 186.676 281.891 186.959 281.312C187.246 280.729 187.647 280.276 188.162 279.952C188.677 279.629 189.251 279.467 189.885 279.467C190.892 279.467 191.669 279.788 192.216 280.431C192.767 281.073 193.043 281.982 193.043 283.158V283.828H188.21C188.26 284.439 188.463 284.922 188.818 285.277C189.178 285.633 189.63 285.811 190.172 285.811C190.933 285.811 191.553 285.503 192.031 284.888L192.927 285.742C192.631 286.184 192.234 286.528 191.737 286.774C191.245 287.016 190.691 287.137 190.076 287.137ZM189.878 280.8C189.422 280.8 189.053 280.959 188.771 281.278C188.493 281.597 188.315 282.042 188.237 282.611H191.402V282.488C191.366 281.932 191.218 281.513 190.958 281.23C190.698 280.943 190.338 280.8 189.878 280.8Z" fill="#333333"/>
<path d="M198.484 284.99C198.484 284.694 198.361 284.468 198.115 284.313C197.874 284.159 197.47 284.022 196.905 283.903C196.34 283.785 195.868 283.634 195.49 283.452C194.661 283.051 194.246 282.47 194.246 281.709C194.246 281.071 194.515 280.538 195.053 280.109C195.59 279.681 196.274 279.467 197.104 279.467C197.988 279.467 198.701 279.686 199.243 280.123C199.79 280.561 200.063 281.128 200.063 281.825H198.402C198.402 281.506 198.284 281.242 198.047 281.032C197.81 280.818 197.495 280.711 197.104 280.711C196.739 280.711 196.44 280.795 196.208 280.964C195.98 281.132 195.866 281.358 195.866 281.641C195.866 281.896 195.973 282.094 196.188 282.235C196.402 282.377 196.835 282.52 197.486 282.666C198.138 282.807 198.648 282.978 199.018 283.179C199.391 283.375 199.667 283.612 199.845 283.89C200.027 284.168 200.118 284.505 200.118 284.901C200.118 285.567 199.842 286.107 199.291 286.521C198.74 286.932 198.017 287.137 197.124 287.137C196.518 287.137 195.978 287.027 195.504 286.809C195.03 286.59 194.661 286.289 194.396 285.906C194.132 285.523 194 285.111 194 284.669H195.613C195.636 285.061 195.784 285.364 196.058 285.578C196.331 285.788 196.693 285.893 197.145 285.893C197.582 285.893 197.915 285.811 198.143 285.646C198.37 285.478 198.484 285.259 198.484 284.99Z" fill="#333333"/>
<path d="M205.717 284.99C205.717 284.694 205.594 284.468 205.348 284.313C205.106 284.159 204.703 284.022 204.138 283.903C203.573 283.785 203.101 283.634 202.723 283.452C201.893 283.051 201.479 282.47 201.479 281.709C201.479 281.071 201.747 280.538 202.285 280.109C202.823 279.681 203.507 279.467 204.336 279.467C205.22 279.467 205.933 279.686 206.476 280.123C207.022 280.561 207.296 281.128 207.296 281.825H205.635C205.635 281.506 205.516 281.242 205.279 281.032C205.042 280.818 204.728 280.711 204.336 280.711C203.971 280.711 203.673 280.795 203.44 280.964C203.213 281.132 203.099 281.358 203.099 281.641C203.099 281.896 203.206 282.094 203.42 282.235C203.634 282.377 204.067 282.52 204.719 282.666C205.37 282.807 205.881 282.978 206.25 283.179C206.624 283.375 206.899 283.612 207.077 283.89C207.259 284.168 207.351 284.505 207.351 284.901C207.351 285.567 207.075 286.107 206.523 286.521C205.972 286.932 205.25 287.137 204.356 287.137C203.75 287.137 203.21 287.027 202.736 286.809C202.262 286.59 201.893 286.289 201.629 285.906C201.365 285.523 201.232 285.111 201.232 284.669H202.846C202.868 285.061 203.017 285.364 203.29 285.578C203.563 285.788 203.926 285.893 204.377 285.893C204.814 285.893 205.147 285.811 205.375 285.646C205.603 285.478 205.717 285.259 205.717 284.99Z" fill="#333333"/>
<path d="M213.223 287C213.15 286.859 213.086 286.629 213.031 286.31C212.503 286.861 211.855 287.137 211.09 287.137C210.347 287.137 209.741 286.925 209.271 286.501C208.802 286.077 208.567 285.553 208.567 284.929C208.567 284.14 208.859 283.536 209.442 283.117C210.03 282.693 210.869 282.481 211.958 282.481H212.977V281.996C212.977 281.613 212.869 281.308 212.655 281.08C212.441 280.848 212.115 280.731 211.678 280.731C211.299 280.731 210.99 280.827 210.748 281.019C210.507 281.205 210.386 281.445 210.386 281.736H208.725C208.725 281.331 208.859 280.952 209.128 280.602C209.397 280.246 209.761 279.968 210.222 279.768C210.687 279.567 211.204 279.467 211.773 279.467C212.639 279.467 213.33 279.686 213.845 280.123C214.36 280.556 214.624 281.167 214.638 281.955V285.291C214.638 285.956 214.731 286.487 214.918 286.884V287H213.223ZM211.397 285.804C211.726 285.804 212.033 285.724 212.32 285.564C212.612 285.405 212.831 285.191 212.977 284.922V283.527H212.081C211.466 283.527 211.003 283.634 210.693 283.849C210.383 284.063 210.229 284.366 210.229 284.758C210.229 285.077 210.333 285.332 210.543 285.523C210.757 285.71 211.042 285.804 211.397 285.804Z" fill="#333333"/>
<path d="M216.087 283.247C216.087 282.099 216.356 281.183 216.894 280.499C217.436 279.811 218.154 279.467 219.047 279.467C219.89 279.467 220.553 279.761 221.036 280.349L221.111 279.604H222.608V286.774C222.608 287.745 222.305 288.511 221.699 289.071C221.098 289.632 220.284 289.912 219.259 289.912C218.716 289.912 218.186 289.798 217.666 289.57C217.151 289.347 216.759 289.053 216.49 288.688L217.276 287.69C217.787 288.297 218.416 288.6 219.163 288.6C219.715 288.6 220.15 288.449 220.469 288.148C220.788 287.852 220.947 287.415 220.947 286.836V286.337C220.469 286.87 219.831 287.137 219.033 287.137C218.167 287.137 217.459 286.793 216.907 286.104C216.36 285.416 216.087 284.464 216.087 283.247ZM217.741 283.391C217.741 284.133 217.892 284.719 218.192 285.147C218.498 285.571 218.919 285.783 219.457 285.783C220.127 285.783 220.624 285.496 220.947 284.922V281.668C220.633 281.107 220.141 280.827 219.471 280.827C218.924 280.827 218.498 281.044 218.192 281.477C217.892 281.91 217.741 282.548 217.741 283.391Z" fill="#333333"/>
<path d="M227.578 287.137C226.525 287.137 225.671 286.806 225.015 286.146C224.363 285.48 224.037 284.596 224.037 283.493V283.288C224.037 282.55 224.178 281.891 224.461 281.312C224.748 280.729 225.149 280.276 225.664 279.952C226.179 279.629 226.753 279.467 227.387 279.467C228.394 279.467 229.171 279.788 229.718 280.431C230.269 281.073 230.545 281.982 230.545 283.158V283.828H225.712C225.762 284.439 225.965 284.922 226.32 285.277C226.68 285.633 227.132 285.811 227.674 285.811C228.435 285.811 229.055 285.503 229.533 284.888L230.429 285.742C230.132 286.184 229.736 286.528 229.239 286.774C228.747 287.016 228.193 287.137 227.578 287.137ZM227.38 280.8C226.924 280.8 226.555 280.959 226.272 281.278C225.994 281.597 225.817 282.042 225.739 282.611H228.904V282.488C228.868 281.932 228.72 281.513 228.46 281.23C228.2 280.943 227.84 280.8 227.38 280.8Z" fill="#333333"/>
</g>
</svg>
